<mxfile host="app.diagrams.net" modified="2024-03-15T18:58:55.106Z" agent="Mozilla/5.0 (Windows NT 10.0; Win64; x64) AppleWebKit/537.36 (KHTML, like Gecko) Chrome/122.0.0.0 Safari/537.36" etag="HLgAVEMnbml1cmEQbDvp" version="24.0.7" type="github">
  <diagram id="C5RBs43oDa-KdzZeNtuy" name="Page-1">
    <mxGraphModel dx="1862" dy="511" grid="1" gridSize="10" guides="1" tooltips="1" connect="1" arrows="1" fold="1" page="1" pageScale="1" pageWidth="827" pageHeight="1169" math="0" shadow="0">
      <root>
        <mxCell id="WIyWlLk6GJQsqaUBKTNV-0" />
        <mxCell id="WIyWlLk6GJQsqaUBKTNV-1" parent="WIyWlLk6GJQsqaUBKTNV-0" />
        <mxCell id="11etpd1PUuqrAtL01Xh2-0" value="Engine" style="swimlane;fontStyle=1;align=center;verticalAlign=top;childLayout=stackLayout;horizontal=1;startSize=26;horizontalStack=0;resizeParent=1;resizeParentMax=0;resizeLast=0;collapsible=1;marginBottom=0;whiteSpace=wrap;html=1;" vertex="1" parent="WIyWlLk6GJQsqaUBKTNV-1">
          <mxGeometry x="480" y="150" width="160" height="124" as="geometry" />
        </mxCell>
        <mxCell id="11etpd1PUuqrAtL01Xh2-1" value="+ name: str&lt;div&gt;+&amp;nbsp;&lt;span style=&quot;background-color: initial;&quot;&gt;engine_type: str&lt;/span&gt;&lt;/div&gt;&lt;div&gt;&lt;span style=&quot;background-color: initial;&quot;&gt;+ potency: int&lt;/span&gt;&lt;/div&gt;&lt;div&gt;&lt;span style=&quot;background-color: initial;&quot;&gt;+ weight: float&lt;/span&gt;&lt;/div&gt;&lt;p class=&quot;MsoNormal&quot;&gt;&lt;span lang=&quot;ES-CO&quot;&gt;&lt;/span&gt;&lt;/p&gt;&lt;div&gt;&lt;br&gt;&lt;div&gt;&lt;br&gt;&lt;/div&gt;&lt;/div&gt;" style="text;strokeColor=none;fillColor=none;align=left;verticalAlign=top;spacingLeft=4;spacingRight=4;overflow=hidden;rotatable=0;points=[[0,0.5],[1,0.5]];portConstraint=eastwest;whiteSpace=wrap;html=1;" vertex="1" parent="11etpd1PUuqrAtL01Xh2-0">
          <mxGeometry y="26" width="160" height="64" as="geometry" />
        </mxCell>
        <mxCell id="11etpd1PUuqrAtL01Xh2-2" value="" style="line;strokeWidth=1;fillColor=none;align=left;verticalAlign=middle;spacingTop=-1;spacingLeft=3;spacingRight=3;rotatable=0;labelPosition=right;points=[];portConstraint=eastwest;strokeColor=inherit;" vertex="1" parent="11etpd1PUuqrAtL01Xh2-0">
          <mxGeometry y="90" width="160" height="8" as="geometry" />
        </mxCell>
        <mxCell id="11etpd1PUuqrAtL01Xh2-3" value="+ __init__(self)" style="text;strokeColor=none;fillColor=none;align=left;verticalAlign=top;spacingLeft=4;spacingRight=4;overflow=hidden;rotatable=0;points=[[0,0.5],[1,0.5]];portConstraint=eastwest;whiteSpace=wrap;html=1;" vertex="1" parent="11etpd1PUuqrAtL01Xh2-0">
          <mxGeometry y="98" width="160" height="26" as="geometry" />
        </mxCell>
        <mxCell id="11etpd1PUuqrAtL01Xh2-4" value="Vehicle" style="swimlane;fontStyle=1;align=center;verticalAlign=top;childLayout=stackLayout;horizontal=1;startSize=26;horizontalStack=0;resizeParent=1;resizeParentMax=0;resizeLast=0;collapsible=1;marginBottom=0;whiteSpace=wrap;html=1;direction=east;" vertex="1" parent="WIyWlLk6GJQsqaUBKTNV-1">
          <mxGeometry x="200" y="150" width="190" height="180" as="geometry">
            <mxRectangle x="200" y="150" width="80" height="30" as="alternateBounds" />
          </mxGeometry>
        </mxCell>
        <mxCell id="11etpd1PUuqrAtL01Xh2-5" value="&lt;div&gt;&lt;div&gt;&lt;span style=&quot;background-color: initial; font-family: Calibri, sans-serif; font-size: 11pt;&quot;&gt;engine: Engine&lt;/span&gt;&lt;/div&gt;&lt;div&gt;&lt;span style=&quot;font-family: Calibri, sans-serif; font-size: 11pt; background-color: initial;&quot;&gt;chasis: str&lt;/span&gt;&lt;/div&gt;&lt;div&gt;&lt;span style=&quot;font-family: Calibri, sans-serif; font-size: 11pt; background-color: initial;&quot;&gt;model: str&lt;/span&gt;&lt;/div&gt;&lt;div&gt;&lt;span style=&quot;font-family: Calibri, sans-serif; font-size: 11pt; background-color: initial;&quot;&gt;year: str&lt;/span&gt;&lt;/div&gt;&lt;/div&gt;" style="text;strokeColor=none;fillColor=none;align=left;verticalAlign=top;spacingLeft=4;spacingRight=4;overflow=hidden;rotatable=0;points=[[0,0.5],[1,0.5]];portConstraint=eastwest;whiteSpace=wrap;html=1;" vertex="1" parent="11etpd1PUuqrAtL01Xh2-4">
          <mxGeometry y="26" width="190" height="84" as="geometry" />
        </mxCell>
        <mxCell id="11etpd1PUuqrAtL01Xh2-6" value="" style="line;strokeWidth=1;fillColor=none;align=left;verticalAlign=middle;spacingTop=-1;spacingLeft=3;spacingRight=3;rotatable=0;labelPosition=right;points=[];portConstraint=eastwest;strokeColor=inherit;" vertex="1" parent="11etpd1PUuqrAtL01Xh2-4">
          <mxGeometry y="110" width="190" height="8" as="geometry" />
        </mxCell>
        <mxCell id="11etpd1PUuqrAtL01Xh2-7" value="+ __init__(self)&lt;div&gt;+&amp;nbsp;&lt;span style=&quot;background-color: initial;&quot;&gt;get_gas_comsumption(): float&lt;/span&gt;&lt;/div&gt;&lt;div&gt;&lt;span style=&quot;background-color: initial;&quot;&gt;+&amp;nbsp;&lt;/span&gt;&lt;span style=&quot;font-family: Calibri, sans-serif; font-size: 11pt; background-color: initial;&quot;&gt;chasis_impact(): float&lt;/span&gt;&lt;/div&gt;&lt;p class=&quot;MsoNormal&quot;&gt;&lt;span lang=&quot;ES-CO&quot;&gt;&lt;/span&gt;&lt;/p&gt;" style="text;strokeColor=none;fillColor=none;align=left;verticalAlign=top;spacingLeft=4;spacingRight=4;overflow=hidden;rotatable=0;points=[[0,0.5],[1,0.5]];portConstraint=eastwest;whiteSpace=wrap;html=1;" vertex="1" parent="11etpd1PUuqrAtL01Xh2-4">
          <mxGeometry y="118" width="190" height="62" as="geometry" />
        </mxCell>
        <mxCell id="11etpd1PUuqrAtL01Xh2-9" style="edgeStyle=orthogonalEdgeStyle;rounded=0;orthogonalLoop=1;jettySize=auto;html=1;exitX=0;exitY=0.5;exitDx=0;exitDy=0;strokeColor=none;endArrow=diamondThin;endFill=1;" edge="1" parent="WIyWlLk6GJQsqaUBKTNV-1" source="11etpd1PUuqrAtL01Xh2-1" target="11etpd1PUuqrAtL01Xh2-5">
          <mxGeometry relative="1" as="geometry" />
        </mxCell>
        <mxCell id="11etpd1PUuqrAtL01Xh2-11" style="edgeStyle=orthogonalEdgeStyle;rounded=0;orthogonalLoop=1;jettySize=auto;html=1;exitX=1;exitY=0.5;exitDx=0;exitDy=0;entryX=0;entryY=0.5;entryDx=0;entryDy=0;endArrow=diamondThin;endFill=1;strokeWidth=2;" edge="1" parent="WIyWlLk6GJQsqaUBKTNV-1" source="11etpd1PUuqrAtL01Xh2-5" target="11etpd1PUuqrAtL01Xh2-1">
          <mxGeometry relative="1" as="geometry" />
        </mxCell>
        <mxCell id="11etpd1PUuqrAtL01Xh2-51" style="edgeStyle=orthogonalEdgeStyle;rounded=0;orthogonalLoop=1;jettySize=auto;html=1;exitX=0.5;exitY=0;exitDx=0;exitDy=0;entryX=1;entryY=0.5;entryDx=0;entryDy=0;strokeWidth=2;endArrow=block;endFill=0;" edge="1" parent="WIyWlLk6GJQsqaUBKTNV-1" source="11etpd1PUuqrAtL01Xh2-35" target="11etpd1PUuqrAtL01Xh2-7">
          <mxGeometry relative="1" as="geometry" />
        </mxCell>
        <mxCell id="11etpd1PUuqrAtL01Xh2-35" value="Motorcycle" style="swimlane;fontStyle=1;align=center;verticalAlign=top;childLayout=stackLayout;horizontal=1;startSize=26;horizontalStack=0;resizeParent=1;resizeParentMax=0;resizeLast=0;collapsible=1;marginBottom=0;whiteSpace=wrap;html=1;direction=east;" vertex="1" parent="WIyWlLk6GJQsqaUBKTNV-1">
          <mxGeometry x="465" y="430" width="190" height="230" as="geometry">
            <mxRectangle x="200" y="150" width="80" height="30" as="alternateBounds" />
          </mxGeometry>
        </mxCell>
        <mxCell id="11etpd1PUuqrAtL01Xh2-36" value="&lt;div&gt;&lt;div&gt;&lt;span style=&quot;font-size:11.0pt;line-height:&lt;br/&gt;107%;font-family:&amp;quot;Calibri&amp;quot;,sans-serif;mso-ascii-theme-font:minor-latin;&lt;br/&gt;mso-fareast-font-family:Calibri;mso-fareast-theme-font:minor-latin;mso-hansi-theme-font:&lt;br/&gt;minor-latin;mso-bidi-font-family:&amp;quot;Times New Roman&amp;quot;;mso-bidi-theme-font:minor-bidi;&lt;br/&gt;mso-ansi-language:ES-CO;mso-fareast-language:EN-US;mso-bidi-language:AR-SA&quot; lang=&quot;ES-CO&quot;&gt;name: str&amp;nbsp;&lt;/span&gt;&lt;/div&gt;&lt;div&gt;&lt;span style=&quot;font-size:11.0pt;line-height:&lt;br/&gt;107%;font-family:&amp;quot;Calibri&amp;quot;,sans-serif;mso-ascii-theme-font:minor-latin;&lt;br/&gt;mso-fareast-font-family:Calibri;mso-fareast-theme-font:minor-latin;mso-hansi-theme-font:&lt;br/&gt;minor-latin;mso-bidi-font-family:&amp;quot;Times New Roman&amp;quot;;mso-bidi-theme-font:minor-bidi;&lt;br/&gt;mso-ansi-language:ES-CO;mso-fareast-language:EN-US;mso-bidi-language:AR-SA&quot; lang=&quot;ES-CO&quot;&gt;bike_type: str&amp;nbsp;&lt;/span&gt;&lt;/div&gt;&lt;div&gt;&lt;span style=&quot;font-family: Calibri, sans-serif; font-size: 11pt; background-color: initial;&quot;&gt;fuel_type: str&lt;/span&gt;&lt;/div&gt;&lt;div&gt;&lt;span style=&quot;font-family: Calibri, sans-serif; font-size: 11pt; background-color: initial;&quot;&gt;engine: Engine&lt;/span&gt;&lt;/div&gt;&lt;div&gt;&lt;span style=&quot;font-family: Calibri, sans-serif; font-size: 11pt; background-color: initial;&quot;&gt;chasis: str&lt;/span&gt;&lt;/div&gt;&lt;div&gt;&lt;span style=&quot;font-family: Calibri, sans-serif; font-size: 11pt; background-color: initial;&quot;&gt;model: str&lt;/span&gt;&lt;/div&gt;&lt;div&gt;&lt;span style=&quot;font-family: Calibri, sans-serif; font-size: 11pt; background-color: initial;&quot;&gt;year: str&lt;/span&gt;&lt;/div&gt;&lt;/div&gt;" style="text;strokeColor=none;fillColor=none;align=left;verticalAlign=top;spacingLeft=4;spacingRight=4;overflow=hidden;rotatable=0;points=[[0,0.5],[1,0.5]];portConstraint=eastwest;whiteSpace=wrap;html=1;" vertex="1" parent="11etpd1PUuqrAtL01Xh2-35">
          <mxGeometry y="26" width="190" height="134" as="geometry" />
        </mxCell>
        <mxCell id="11etpd1PUuqrAtL01Xh2-37" value="" style="line;strokeWidth=1;fillColor=none;align=left;verticalAlign=middle;spacingTop=-1;spacingLeft=3;spacingRight=3;rotatable=0;labelPosition=right;points=[];portConstraint=eastwest;strokeColor=inherit;" vertex="1" parent="11etpd1PUuqrAtL01Xh2-35">
          <mxGeometry y="160" width="190" height="8" as="geometry" />
        </mxCell>
        <mxCell id="11etpd1PUuqrAtL01Xh2-38" value="+ __init__(self)&lt;div&gt;+&amp;nbsp;&lt;span style=&quot;background-color: initial;&quot;&gt;get_gas_comsumption(): float&lt;/span&gt;&lt;/div&gt;&lt;div&gt;&lt;span style=&quot;background-color: initial;&quot;&gt;+&amp;nbsp;&lt;/span&gt;&lt;span style=&quot;font-family: Calibri, sans-serif; font-size: 11pt; background-color: initial;&quot;&gt;chasis_impact(): float&lt;/span&gt;&lt;/div&gt;&lt;p class=&quot;MsoNormal&quot;&gt;&lt;span lang=&quot;ES-CO&quot;&gt;&lt;/span&gt;&lt;/p&gt;" style="text;strokeColor=none;fillColor=none;align=left;verticalAlign=top;spacingLeft=4;spacingRight=4;overflow=hidden;rotatable=0;points=[[0,0.5],[1,0.5]];portConstraint=eastwest;whiteSpace=wrap;html=1;" vertex="1" parent="11etpd1PUuqrAtL01Xh2-35">
          <mxGeometry y="168" width="190" height="62" as="geometry" />
        </mxCell>
        <mxCell id="11etpd1PUuqrAtL01Xh2-39" value="Yatch" style="swimlane;fontStyle=1;align=center;verticalAlign=top;childLayout=stackLayout;horizontal=1;startSize=26;horizontalStack=0;resizeParent=1;resizeParentMax=0;resizeLast=0;collapsible=1;marginBottom=0;whiteSpace=wrap;html=1;direction=east;" vertex="1" parent="WIyWlLk6GJQsqaUBKTNV-1">
          <mxGeometry x="200" y="430" width="190" height="230" as="geometry">
            <mxRectangle x="200" y="150" width="80" height="30" as="alternateBounds" />
          </mxGeometry>
        </mxCell>
        <mxCell id="11etpd1PUuqrAtL01Xh2-40" value="&lt;div&gt;&lt;div&gt;&lt;span style=&quot;font-size:11.0pt;line-height:&lt;br/&gt;107%;font-family:&amp;quot;Calibri&amp;quot;,sans-serif;mso-ascii-theme-font:minor-latin;&lt;br/&gt;mso-fareast-font-family:Calibri;mso-fareast-theme-font:minor-latin;mso-hansi-theme-font:&lt;br/&gt;minor-latin;mso-bidi-font-family:&amp;quot;Times New Roman&amp;quot;;mso-bidi-theme-font:minor-bidi;&lt;br/&gt;mso-ansi-language:ES-CO;mso-fareast-language:EN-US;mso-bidi-language:AR-SA&quot; lang=&quot;ES-CO&quot;&gt;name: str&amp;nbsp;&lt;/span&gt;&lt;/div&gt;&lt;div&gt;&lt;span style=&quot;font-size:11.0pt;line-height:&lt;br/&gt;107%;font-family:&amp;quot;Calibri&amp;quot;,sans-serif;mso-ascii-theme-font:minor-latin;&lt;br/&gt;mso-fareast-font-family:Calibri;mso-fareast-theme-font:minor-latin;mso-hansi-theme-font:&lt;br/&gt;minor-latin;mso-bidi-font-family:&amp;quot;Times New Roman&amp;quot;;mso-bidi-theme-font:minor-bidi;&lt;br/&gt;mso-ansi-language:ES-CO;mso-fareast-language:EN-US;mso-bidi-language:AR-SA&quot; lang=&quot;ES-CO&quot;&gt;max_speed: float&amp;nbsp;&lt;/span&gt;&lt;/div&gt;&lt;div&gt;&lt;span style=&quot;font-family: Calibri, sans-serif; font-size: 11pt; background-color: initial;&quot;&gt;brand: str&lt;/span&gt;&lt;/div&gt;&lt;div&gt;&lt;span style=&quot;font-family: Calibri, sans-serif; font-size: 11pt; background-color: initial;&quot;&gt;engine: Engine&lt;/span&gt;&lt;/div&gt;&lt;div&gt;&lt;span style=&quot;font-family: Calibri, sans-serif; font-size: 11pt; background-color: initial;&quot;&gt;chasis: str&lt;/span&gt;&lt;/div&gt;&lt;div&gt;&lt;span style=&quot;font-family: Calibri, sans-serif; font-size: 11pt; background-color: initial;&quot;&gt;model: str&lt;/span&gt;&lt;/div&gt;&lt;div&gt;&lt;span style=&quot;font-family: Calibri, sans-serif; font-size: 11pt; background-color: initial;&quot;&gt;year: str&lt;/span&gt;&lt;/div&gt;&lt;/div&gt;" style="text;strokeColor=none;fillColor=none;align=left;verticalAlign=top;spacingLeft=4;spacingRight=4;overflow=hidden;rotatable=0;points=[[0,0.5],[1,0.5]];portConstraint=eastwest;whiteSpace=wrap;html=1;" vertex="1" parent="11etpd1PUuqrAtL01Xh2-39">
          <mxGeometry y="26" width="190" height="134" as="geometry" />
        </mxCell>
        <mxCell id="11etpd1PUuqrAtL01Xh2-41" value="" style="line;strokeWidth=1;fillColor=none;align=left;verticalAlign=middle;spacingTop=-1;spacingLeft=3;spacingRight=3;rotatable=0;labelPosition=right;points=[];portConstraint=eastwest;strokeColor=inherit;" vertex="1" parent="11etpd1PUuqrAtL01Xh2-39">
          <mxGeometry y="160" width="190" height="8" as="geometry" />
        </mxCell>
        <mxCell id="11etpd1PUuqrAtL01Xh2-42" value="+ __init__(self)&lt;div&gt;+&amp;nbsp;&lt;span style=&quot;background-color: initial;&quot;&gt;get_gas_comsumption(): float&lt;/span&gt;&lt;/div&gt;&lt;div&gt;&lt;span style=&quot;background-color: initial;&quot;&gt;+&amp;nbsp;&lt;/span&gt;&lt;span style=&quot;font-family: Calibri, sans-serif; font-size: 11pt; background-color: initial;&quot;&gt;chasis_impact(): float&lt;/span&gt;&lt;/div&gt;&lt;p class=&quot;MsoNormal&quot;&gt;&lt;span lang=&quot;ES-CO&quot;&gt;&lt;/span&gt;&lt;/p&gt;" style="text;strokeColor=none;fillColor=none;align=left;verticalAlign=top;spacingLeft=4;spacingRight=4;overflow=hidden;rotatable=0;points=[[0,0.5],[1,0.5]];portConstraint=eastwest;whiteSpace=wrap;html=1;" vertex="1" parent="11etpd1PUuqrAtL01Xh2-39">
          <mxGeometry y="168" width="190" height="62" as="geometry" />
        </mxCell>
        <mxCell id="11etpd1PUuqrAtL01Xh2-43" value="Truck" style="swimlane;fontStyle=1;align=center;verticalAlign=top;childLayout=stackLayout;horizontal=1;startSize=26;horizontalStack=0;resizeParent=1;resizeParentMax=0;resizeLast=0;collapsible=1;marginBottom=0;whiteSpace=wrap;html=1;direction=east;" vertex="1" parent="WIyWlLk6GJQsqaUBKTNV-1">
          <mxGeometry x="-60" y="430" width="190" height="230" as="geometry">
            <mxRectangle x="200" y="150" width="80" height="30" as="alternateBounds" />
          </mxGeometry>
        </mxCell>
        <mxCell id="11etpd1PUuqrAtL01Xh2-44" value="&lt;div&gt;&lt;div&gt;&lt;span style=&quot;font-size:11.0pt;line-height:&lt;br/&gt;107%;font-family:&amp;quot;Calibri&amp;quot;,sans-serif;mso-ascii-theme-font:minor-latin;&lt;br/&gt;mso-fareast-font-family:Calibri;mso-fareast-theme-font:minor-latin;mso-hansi-theme-font:&lt;br/&gt;minor-latin;mso-bidi-font-family:&amp;quot;Times New Roman&amp;quot;;mso-bidi-theme-font:minor-bidi;&lt;br/&gt;mso-ansi-language:ES-CO;mso-fareast-language:EN-US;mso-bidi-language:AR-SA&quot; lang=&quot;ES-CO&quot;&gt;name: str&amp;nbsp;&lt;/span&gt;&lt;/div&gt;&lt;div&gt;&lt;span style=&quot;font-size:11.0pt;line-height:&lt;br/&gt;107%;font-family:&amp;quot;Calibri&amp;quot;,sans-serif;mso-ascii-theme-font:minor-latin;&lt;br/&gt;mso-fareast-font-family:Calibri;mso-fareast-theme-font:minor-latin;mso-hansi-theme-font:&lt;br/&gt;minor-latin;mso-bidi-font-family:&amp;quot;Times New Roman&amp;quot;;mso-bidi-theme-font:minor-bidi;&lt;br/&gt;mso-ansi-language:ES-CO;mso-fareast-language:EN-US;mso-bidi-language:AR-SA&quot; lang=&quot;ES-CO&quot;&gt;size: float&amp;nbsp;&lt;/span&gt;&lt;/div&gt;&lt;div&gt;&lt;span style=&quot;font-family: Calibri, sans-serif; font-size: 11pt; background-color: initial;&quot;&gt;load_capacity: float&lt;/span&gt;&lt;/div&gt;&lt;div&gt;&lt;span style=&quot;font-family: Calibri, sans-serif; font-size: 11pt; background-color: initial;&quot;&gt;engine: Engine&lt;/span&gt;&lt;/div&gt;&lt;div&gt;&lt;span style=&quot;font-family: Calibri, sans-serif; font-size: 11pt; background-color: initial;&quot;&gt;chasis: str&lt;/span&gt;&lt;/div&gt;&lt;div&gt;&lt;span style=&quot;font-family: Calibri, sans-serif; font-size: 11pt; background-color: initial;&quot;&gt;model: str&lt;/span&gt;&lt;/div&gt;&lt;div&gt;&lt;span style=&quot;font-family: Calibri, sans-serif; font-size: 11pt; background-color: initial;&quot;&gt;year: str&lt;/span&gt;&lt;/div&gt;&lt;/div&gt;" style="text;strokeColor=none;fillColor=none;align=left;verticalAlign=top;spacingLeft=4;spacingRight=4;overflow=hidden;rotatable=0;points=[[0,0.5],[1,0.5]];portConstraint=eastwest;whiteSpace=wrap;html=1;" vertex="1" parent="11etpd1PUuqrAtL01Xh2-43">
          <mxGeometry y="26" width="190" height="134" as="geometry" />
        </mxCell>
        <mxCell id="11etpd1PUuqrAtL01Xh2-45" value="" style="line;strokeWidth=1;fillColor=none;align=left;verticalAlign=middle;spacingTop=-1;spacingLeft=3;spacingRight=3;rotatable=0;labelPosition=right;points=[];portConstraint=eastwest;strokeColor=inherit;" vertex="1" parent="11etpd1PUuqrAtL01Xh2-43">
          <mxGeometry y="160" width="190" height="8" as="geometry" />
        </mxCell>
        <mxCell id="11etpd1PUuqrAtL01Xh2-46" value="+ __init__(self)&lt;div&gt;+&amp;nbsp;&lt;span style=&quot;background-color: initial;&quot;&gt;get_gas_comsumption(): float&lt;/span&gt;&lt;/div&gt;&lt;div&gt;&lt;span style=&quot;background-color: initial;&quot;&gt;+&amp;nbsp;&lt;/span&gt;&lt;span style=&quot;font-family: Calibri, sans-serif; font-size: 11pt; background-color: initial;&quot;&gt;chasis_impact(): float&lt;/span&gt;&lt;/div&gt;&lt;p class=&quot;MsoNormal&quot;&gt;&lt;span lang=&quot;ES-CO&quot;&gt;&lt;/span&gt;&lt;/p&gt;" style="text;strokeColor=none;fillColor=none;align=left;verticalAlign=top;spacingLeft=4;spacingRight=4;overflow=hidden;rotatable=0;points=[[0,0.5],[1,0.5]];portConstraint=eastwest;whiteSpace=wrap;html=1;" vertex="1" parent="11etpd1PUuqrAtL01Xh2-43">
          <mxGeometry y="168" width="190" height="62" as="geometry" />
        </mxCell>
        <mxCell id="11etpd1PUuqrAtL01Xh2-47" value="Car" style="swimlane;fontStyle=1;align=center;verticalAlign=top;childLayout=stackLayout;horizontal=1;startSize=26;horizontalStack=0;resizeParent=1;resizeParentMax=0;resizeLast=0;collapsible=1;marginBottom=0;whiteSpace=wrap;html=1;direction=east;" vertex="1" parent="WIyWlLk6GJQsqaUBKTNV-1">
          <mxGeometry x="-110" y="125" width="190" height="230" as="geometry">
            <mxRectangle x="200" y="150" width="80" height="30" as="alternateBounds" />
          </mxGeometry>
        </mxCell>
        <mxCell id="11etpd1PUuqrAtL01Xh2-48" value="&lt;div&gt;&lt;div&gt;&lt;span style=&quot;font-size:11.0pt;line-height:&lt;br/&gt;107%;font-family:&amp;quot;Calibri&amp;quot;,sans-serif;mso-ascii-theme-font:minor-latin;&lt;br/&gt;mso-fareast-font-family:Calibri;mso-fareast-theme-font:minor-latin;mso-hansi-theme-font:&lt;br/&gt;minor-latin;mso-bidi-font-family:&amp;quot;Times New Roman&amp;quot;;mso-bidi-theme-font:minor-bidi;&lt;br/&gt;mso-ansi-language:ES-CO;mso-fareast-language:EN-US;mso-bidi-language:AR-SA&quot; lang=&quot;ES-CO&quot;&gt;name: str&lt;/span&gt;&lt;/div&gt;&lt;div&gt;&lt;span style=&quot;font-family: Calibri, sans-serif; font-size: 11pt; background-color: initial;&quot;&gt;car_type: str&amp;nbsp;&lt;/span&gt;&lt;br&gt;&lt;/div&gt;&lt;div&gt;&lt;span style=&quot;font-family: Calibri, sans-serif; font-size: 11pt; background-color: initial;&quot;&gt;chairs: int&lt;/span&gt;&lt;/div&gt;&lt;div&gt;&lt;span style=&quot;font-family: Calibri, sans-serif; font-size: 11pt; background-color: initial;&quot;&gt;engine: Engine&lt;/span&gt;&lt;/div&gt;&lt;div&gt;&lt;span style=&quot;font-family: Calibri, sans-serif; font-size: 11pt; background-color: initial;&quot;&gt;chasis: str&lt;/span&gt;&lt;/div&gt;&lt;div&gt;&lt;span style=&quot;font-family: Calibri, sans-serif; font-size: 11pt; background-color: initial;&quot;&gt;model: str&lt;/span&gt;&lt;/div&gt;&lt;div&gt;&lt;span style=&quot;font-family: Calibri, sans-serif; font-size: 11pt; background-color: initial;&quot;&gt;year: str&lt;/span&gt;&lt;/div&gt;&lt;/div&gt;" style="text;strokeColor=none;fillColor=none;align=left;verticalAlign=top;spacingLeft=4;spacingRight=4;overflow=hidden;rotatable=0;points=[[0,0.5],[1,0.5]];portConstraint=eastwest;whiteSpace=wrap;html=1;" vertex="1" parent="11etpd1PUuqrAtL01Xh2-47">
          <mxGeometry y="26" width="190" height="134" as="geometry" />
        </mxCell>
        <mxCell id="11etpd1PUuqrAtL01Xh2-49" value="" style="line;strokeWidth=1;fillColor=none;align=left;verticalAlign=middle;spacingTop=-1;spacingLeft=3;spacingRight=3;rotatable=0;labelPosition=right;points=[];portConstraint=eastwest;strokeColor=inherit;" vertex="1" parent="11etpd1PUuqrAtL01Xh2-47">
          <mxGeometry y="160" width="190" height="8" as="geometry" />
        </mxCell>
        <mxCell id="11etpd1PUuqrAtL01Xh2-50" value="+ __init__(self)&lt;div&gt;+&amp;nbsp;&lt;span style=&quot;background-color: initial;&quot;&gt;get_gas_comsumption(): float&lt;/span&gt;&lt;/div&gt;&lt;div&gt;&lt;span style=&quot;background-color: initial;&quot;&gt;+&amp;nbsp;&lt;/span&gt;&lt;span style=&quot;font-family: Calibri, sans-serif; font-size: 11pt; background-color: initial;&quot;&gt;chasis_impact(): float&lt;/span&gt;&lt;/div&gt;&lt;p class=&quot;MsoNormal&quot;&gt;&lt;span lang=&quot;ES-CO&quot;&gt;&lt;/span&gt;&lt;/p&gt;" style="text;strokeColor=none;fillColor=none;align=left;verticalAlign=top;spacingLeft=4;spacingRight=4;overflow=hidden;rotatable=0;points=[[0,0.5],[1,0.5]];portConstraint=eastwest;whiteSpace=wrap;html=1;" vertex="1" parent="11etpd1PUuqrAtL01Xh2-47">
          <mxGeometry y="168" width="190" height="62" as="geometry" />
        </mxCell>
        <mxCell id="11etpd1PUuqrAtL01Xh2-52" style="edgeStyle=orthogonalEdgeStyle;rounded=0;orthogonalLoop=1;jettySize=auto;html=1;exitX=0.5;exitY=0;exitDx=0;exitDy=0;entryX=0.962;entryY=1.012;entryDx=0;entryDy=0;entryPerimeter=0;strokeWidth=2;endArrow=block;endFill=0;" edge="1" parent="WIyWlLk6GJQsqaUBKTNV-1" source="11etpd1PUuqrAtL01Xh2-39" target="11etpd1PUuqrAtL01Xh2-7">
          <mxGeometry relative="1" as="geometry" />
        </mxCell>
        <mxCell id="11etpd1PUuqrAtL01Xh2-53" style="edgeStyle=orthogonalEdgeStyle;rounded=0;orthogonalLoop=1;jettySize=auto;html=1;exitX=1;exitY=0.5;exitDx=0;exitDy=0;entryX=-0.004;entryY=0.69;entryDx=0;entryDy=0;entryPerimeter=0;strokeWidth=2;endArrow=block;endFill=0;" edge="1" parent="WIyWlLk6GJQsqaUBKTNV-1" source="11etpd1PUuqrAtL01Xh2-44" target="11etpd1PUuqrAtL01Xh2-7">
          <mxGeometry relative="1" as="geometry" />
        </mxCell>
        <mxCell id="11etpd1PUuqrAtL01Xh2-54" style="edgeStyle=orthogonalEdgeStyle;rounded=0;orthogonalLoop=1;jettySize=auto;html=1;exitX=1;exitY=0.5;exitDx=0;exitDy=0;entryX=0;entryY=0.5;entryDx=0;entryDy=0;strokeWidth=2;endArrow=block;endFill=0;" edge="1" parent="WIyWlLk6GJQsqaUBKTNV-1" source="11etpd1PUuqrAtL01Xh2-48" target="11etpd1PUuqrAtL01Xh2-5">
          <mxGeometry relative="1" as="geometry" />
        </mxCell>
      </root>
    </mxGraphModel>
  </diagram>
</mxfile>
